<?xml version="1.0" encoding="utf-8"?>
<!-- Generator: Adobe Illustrator 26.4.1, SVG Export Plug-In . SVG Version: 6.00 Build 0)  -->
<svg version="1.1" id="Layer_2_00000151520738059884074820000003242003929846428802_"
	 xmlns="http://www.w3.org/2000/svg" xmlns:xlink="http://www.w3.org/1999/xlink" x="0px" y="0px" viewBox="0 0 172.7 172.7"
	 style="enable-background:new 0 0 172.7 172.7;" xml:space="preserve">
<style type="text/css">
	.st0{fill:#323232;}
	.st1{fill:#CC0066;}
	.st2{fill:#00CC66;}
	.st3{fill:#2B2B2B;}
	.st4{fill:none;}
	.st5{fill:none;stroke:#2B2B2B;stroke-miterlimit:10;}
	.st6{fill:#333333;}
</style>
<g id="Layer_1-2">
	<g id="kim">
		<path id="kim-k" class="st0" d="M30.2,119.6l7.1-13.7l22.7-3.9l-14.2,30.1l16.6,29.9H37.3l-7.1-15.6v15.6h-20v-56.7l20.1-3.3
			L30.2,119.6L30.2,119.6z"/>
		<polygon id="kim-i" class="st0" points="65.2,115.8 85,112.4 85,162.1 65.2,162.1 		"/>
		<path id="kim-m" class="st0" d="M90.7,115.8l17.9,3.3v3.6c2.9-2.6,6.4-5.1,10.3-5.6c5.2-0.7,11.9-0.4,14.7,3.7c4.3-4,9-6,15.7-5.8
			c9.2,0.2,13.8,5.1,13.8,19V162h-19.8v-24.6c0-2.6-1.3-3.5-3.2-3.5c-1.4,0-2.7,0.7-3.3,2V162H117v-24.6c0-2.6-1.3-3.5-3.2-3.5
			c-1.4,0-2.7,0.7-3.3,2V162H90.7L90.7,115.8L90.7,115.8z"/>
	</g>
	<polygon id="triangle" class="st1" points="123,77.4 91.5,82.1 111.3,107 	"/>
	
		<rect id="square" x="129.2" y="86.1" transform="matrix(0.8971 -0.4418 0.4418 0.8971 -28.6734 72.2742)" class="st2" width="23.2" height="23.2"/>
	<circle id="circle" class="st3" cx="75.3" cy="92.3" r="11.8"/>
	<polygon id="border" class="st4" points="166.8,165.9 7,165.9 7,6.2 75.3,6.2 166.8,6.2 	"/>
	<path id="color-border" class="st5" d="M164.6,172.2H8.1c-4.2,0-7.6-3.4-7.6-7.6V8.1c0-4.2,3.4-7.6,7.6-7.6h156.5
		c4.2,0,7.6,3.4,7.6,7.6v156.5C172.2,168.8,168.8,172.2,164.6,172.2L164.6,172.2z"/>
</g>
<g id="log-menu">
	<path id="menu-m" class="st6" d="M63,37.4l-2.9,18.3h-8.4l2.7-16.5c0.1-0.7,0.2-1.1,0.2-1.6c0-1.4-0.5-2.4-2.3-2.4
		c-2,0-4.3,0.6-5.2,0.9l-3,19.7h-8.4l2.6-16.5c0.1-0.7,0.2-1.2,0.2-1.6c0-1.3-0.5-2.4-2.3-2.4c-1,0-3.6,0.5-5.2,1.1l-3.1,19.5h-8.3
		l4.4-27.8h6.8l0.6,2c1.9-0.9,6.3-2.6,8.8-2.6c2,0,4.5,0.5,5.9,2.7c0.8-0.5,5.6-2.7,10.2-2.7c2.9,0,7.1,0.5,7.1,6.9
		C63.3,35.1,63.2,36.1,63,37.4z"/>
	<path id="menu-e" class="st6" d="M91.6,36l-0.4,2.2c-0.6,3.2-3.6,5.2-7.3,5.9c-2.1,0.4-7.8,0.7-9.4,0.7L74.3,46
		c-0.1,0.5-0.1,0.7-0.1,0.9c0,1.1,0.5,2.1,2.4,2.1c3.9,0,10.1-0.7,13.6-1.6l-1,6.1c-3.4,1.4-9.8,2.7-14.2,2.7
		c-3.1,0-9.3-0.5-9.3-7.6c0-0.7,0.1-1.6,0.2-2.5l1.4-8.8c0.8-5,3.9-9.5,10.6-9.5h6c6.8,0,7.8,4.1,7.8,6.4
		C91.7,34.9,91.6,35.6,91.6,36z M75.8,36.8l-0.6,3c0.9,0,5.9-0.2,7-0.5c1.6-0.4,2-1,2.2-1.5c0.1-0.3,0.3-1.1,0.3-1.4
		c0-1.1-0.7-1.8-2-1.8h-4.3C77.5,34.5,76.1,35.1,75.8,36.8z"/>
	<path id="menu-n" class="st6" d="M122.8,37.4l-2.9,18.3h-8.4l2.6-16.5c0.1-0.7,0.2-1.1,0.2-1.6c0-1.6-0.8-2.5-2.2-2.5
		c-1.9,0-5.2,0.6-7.4,1.1l-3.2,19.5h-8.3l4.4-27.8h6.8l0.6,2.1c3.4-1.4,8.1-2.6,11-2.6c2.9,0,7.1,0.5,7.1,6.9
		C123.1,35.1,123,36.1,122.8,37.4z"/>
	<path id="menu-u" class="st6" d="M150.6,55.7h-7.2L143,53c-2.2,1.4-6,3.2-9.2,3.2c-2.9,0-8.1-0.6-8.1-6.9c0-0.9,0.1-2,0.3-3.2
		l2.9-18.3h8.3l-2.6,16.7c-0.1,0.3-0.1,0.9-0.1,1.4c0,1.2,0.4,2.5,2.3,2.5c2.6,0,5.5-0.9,7-1.7l3-18.8h8.3L150.6,55.7z"/>
</g>
</svg>
