<?xml version="1.0" encoding="UTF-8"?>
<svg id="Layer_2" data-name="Layer 2" xmlns="http://www.w3.org/2000/svg" viewBox="0 0 172.7 172.7">
  <defs>
    <style>
      .cls-1, .cls-2 {
      fill: none;
      }

      .cls-3 {
      fill: #0c6;
      }

      .cls-4 {
      fill: #323232;
      }

      .cls-5 {
      fill: #2b2b2b;
      }

      .cls-6 {
      fill: #c06;
      }

      .cls-2 {
      stroke: #2b2b2b;
      stroke-miterlimit: 10;
      }
    </style>
  </defs>
  <g id="Layer_1-2" data-name="Layer 1">
    <g id="kim">
      <path id="kim-k" class="cls-4" d="M30.22,119.64l7.07-13.67,22.73-3.92-14.24,30.1,16.6,29.91h-25.09l-7.07-15.65v15.65H10.17v-56.74l20.06-3.27v17.6Z"/>
      <polygon id="kim-i" class="cls-4" points="65.21 115.75 85.02 112.42 85.02 162.06 65.21 162.06 65.21 115.75"/>
      <path id="kim-m" class="cls-4" d="M90.68,115.75l17.92,3.27v3.61c2.92-2.59,6.42-5.13,10.28-5.62,5.25-.67,11.88-.43,14.71,3.74,4.33-4.02,8.96-5.99,15.72-5.84,9.24,.21,13.81,5.1,13.81,18.99v28.15h-19.81v-24.64c0-2.59-1.32-3.52-3.21-3.52-1.41,0-2.74,.74-3.3,2.04v26.12h-19.81v-24.64c0-2.59-1.32-3.52-3.21-3.52-1.42,0-2.74,.74-3.3,2.04v26.12h-19.81v-46.31Z"/>
    </g>
    <polygon id="triangle" class="cls-6" points="122.99 77.45 91.52 82.09 111.27 107.02 122.99 77.45"/>
    <rect id="square" class="cls-3" x="129.22" y="86.08" width="23.22" height="23.22" transform="translate(-28.67 72.28) rotate(-26.22)"/>
    <circle id="circle" class="cls-5" cx="75.26" cy="92.28" r="11.76"/>
    <polygon id="border" class="cls-1" points="166.77 165.93 7 165.93 7 6.16 75.26 6.16 166.77 6.16 166.77 165.93"/>
    <path id="color-border" class="cls-2" d="M164.59,172.2H8.12c-4.21,0-7.62-3.41-7.62-7.62V8.12C.5,3.91,3.91,.5,8.12,.5H164.59c4.21,0,7.62,3.41,7.62,7.62V164.59c0,4.21-3.41,7.62-7.62,7.62Z"/>
  </g>
  <g id="logo-menu">
      <path id="menu-m" d="M63,37.35l-2.93,18.33h-8.39l2.7-16.55c.12-.69,.17-1.15,.17-1.61,0-1.38-.52-2.41-2.3-2.41-1.95,0-4.25,.57-5.17,.92l-3.05,19.65h-8.39l2.59-16.55c.12-.69,.17-1.21,.17-1.61,0-1.32-.52-2.41-2.3-2.41-1.03,0-3.56,.52-5.17,1.09l-3.1,19.48h-8.33l4.42-27.81h6.78l.63,2.01c1.9-.92,6.26-2.59,8.79-2.59,2.01,0,4.48,.52,5.92,2.7,.8-.46,5.63-2.7,10.17-2.7,2.93,0,7.07,.52,7.07,6.9,0,.92-.11,1.95-.29,3.16Z"/>
      <path id="menu-e" d="M91.56,36.03l-.4,2.24c-.58,3.22-3.56,5.17-7.3,5.86-2.07,.4-7.81,.69-9.37,.69l-.17,1.21c-.06,.46-.06,.69-.06,.92,0,1.09,.52,2.07,2.41,2.07,3.91,0,10.06-.75,13.56-1.61l-.98,6.15c-3.39,1.38-9.83,2.7-14.19,2.7-3.1,0-9.31-.46-9.31-7.59,0-.75,.11-1.55,.23-2.47l1.38-8.85c.8-5,3.91-9.48,10.57-9.48h5.98c6.84,0,7.81,4.14,7.81,6.38,0,.63-.12,1.32-.17,1.78Zm-15.75,.75l-.57,3.05c.92,0,5.86-.23,7.01-.52,1.61-.4,1.95-.98,2.18-1.49,.11-.29,.29-1.09,.29-1.44,0-1.09-.69-1.84-1.95-1.84h-4.25c-.98,0-2.41,.57-2.7,2.24Z"/>
      <path id="menu-n" d="M122.82,37.35l-2.87,18.33h-8.39l2.59-16.55c.12-.69,.17-1.15,.17-1.61,0-1.61-.8-2.47-2.24-2.47-1.9,0-5.17,.63-7.36,1.15l-3.16,19.48h-8.33l4.42-27.81h6.78l.63,2.07c3.39-1.38,8.1-2.64,10.98-2.64s7.07,.46,7.07,6.9c0,.92-.12,1.95-.29,3.16Z"/>
      <path id="menu-u" d="M150.57,55.68h-7.24l-.34-2.64c-2.18,1.38-6.03,3.22-9.19,3.22-2.93,0-8.1-.57-8.1-6.9,0-.92,.12-1.95,.29-3.16l2.87-18.33h8.33l-2.64,16.67c-.06,.34-.12,.86-.12,1.38,0,1.21,.4,2.53,2.3,2.53,2.59,0,5.46-.92,6.95-1.72l2.99-18.85h8.33l-4.42,27.81Z"/>
  </g>
</svg>